<?xml version="1.0" encoding="UTF-8" standalone="no"?>
<svg
   width="37"
   height="40"
   viewBox="0 0 9.7895828 10.583334"
   version="1.1"
   id="svg839"
   inkscape:export-filename="C:\Users\malca\Downloads\ProyectoVirtual\favicon.png"
   inkscape:export-xdpi="6.1440001"
   inkscape:export-ydpi="6.1440001"
   inkscape:version="1.1 (c68e22c387, 2021-05-23)"
   sodipodi:docname="favicon.svg"
   xmlns:inkscape="http://www.inkscape.org/namespaces/inkscape"
   xmlns:sodipodi="http://sodipodi.sourceforge.net/DTD/sodipodi-0.dtd"
   xmlns="http://www.w3.org/2000/svg"
   xmlns:svg="http://www.w3.org/2000/svg"
   xmlns:rdf="http://www.w3.org/1999/02/22-rdf-syntax-ns#"
   xmlns:cc="http://creativecommons.org/ns#"
   xmlns:dc="http://purl.org/dc/elements/1.1/">
  <defs
     id="defs833" />
  <sodipodi:namedview
     id="base"
     pagecolor="#ffffff"
     bordercolor="#666666"
     borderopacity="1.0"
     inkscape:pageopacity="0"
     inkscape:pageshadow="2"
     inkscape:zoom="11.313708"
     inkscape:cx="33.278213"
     inkscape:cy="10.032077"
     inkscape:document-units="mm"
     inkscape:current-layer="layer1"
     inkscape:document-rotation="0"
     showgrid="false"
     height="36mm"
     units="px"
     inkscape:pagecheckerboard="false"
     inkscape:window-width="1920"
     inkscape:window-height="1017"
     inkscape:window-x="-8"
     inkscape:window-y="-8"
     inkscape:window-maximized="1" />
  <metadata
     id="metadata836">
    <rdf:RDF>
      <cc:Work
         rdf:about="">
        <dc:format>image/svg+xml</dc:format>
        <dc:type
           rdf:resource="http://purl.org/dc/dcmitype/StillImage" />
      </cc:Work>
    </rdf:RDF>
  </metadata>
  <g
     inkscape:label="Capa 1"
     inkscape:groupmode="layer"
     id="layer1">
    <ellipse
       style="fill:#f57c00;fill-opacity:1;stroke-width:0.0966766"
       id="path26"
       cx="4.8947916"
       cy="5.2916665"
       rx="4.8018084"
       ry="5.0000196" />
    <g
       id="g1495"
       transform="matrix(5.8382792,0,0,5.7560368,-5.7964646,-0.52755)"
       inkscape:export-xdpi="6"
       inkscape:export-ydpi="6">
      <path
         style="fill:#000000;stroke-width:0.0031389"
         d="m 1.7783067,1.7175055 0.00191,-0.0076 c 0.00291,-0.011565 0.016647,-0.02617 0.028747,-0.030545 l 0.01083,-0.00392 V 1.5289543 1.3824704 l -0.065918,-0.027509 c -0.036254,-0.01513 -0.065885,-0.028382 -0.065845,-0.029449 3.57e-5,-0.00106 0.047485,-0.021588 0.1054348,-0.045602 0.060947,-0.025256 0.1035905,-0.044558 0.1011581,-0.045786 -0.00231,-0.00116 -0.049759,-0.021003 -0.105435,-0.044078 -0.055677,-0.023075 -0.1012298,-0.042752 -0.1012298,-0.043726 0,-9.764e-4 0.04061,-0.01862 0.090244,-0.039214 0.049634,-0.020594 0.097091,-0.040425 0.1054603,-0.044069 L 1.8988802,1.056413 1.7934488,1.012645 C 1.7354608,0.9885723 1.6880034,0.9680337 1.6879876,0.9670027 1.6879757,0.9659777 1.7351776,0.9454908 1.792889,0.9214887 1.861655,0.892889 1.8962954,0.8769954 1.8933982,0.8753743 1.8909682,0.8740033 1.8448082,0.8545143 1.7908223,0.832043 1.7368363,0.8095714 1.6915083,0.7900333 1.6900918,0.7886249 c -0.00142,-0.001406 0.00988,-0.007787 0.025111,-0.0141705 0.015228,-0.006386 0.06194,-0.0258483 0.1038053,-0.0432501 0.041866,-0.0174023 0.076113,-0.0324881 0.076107,-0.0335256 -6.3e-6,-0.001044 -0.016957,-0.008849 -0.037667,-0.017358 -0.02071,-0.008509 -0.03773,-0.0169848 -0.03782,-0.0188333 -9.48e-5,-0.001842 -2.38e-5,-0.072879 1.565e-4,-0.15784501 l 3.212e-4,-0.154484 -0.010358,-0.00443 c -0.01237,-0.005292 -0.025978,-0.0191741 -0.030484,-0.0311002 l -0.00326,-0.008633 -0.00189,-0.0111479 0.00165,-0.0108244 0.00436,-0.0102024 c 0.00526,-0.0123054 0.019178,-0.0258481 0.031237,-0.0304046 0.028767,-0.0108691 0.063815,0.00533 0.072575,0.0335437 l 0.0022,0.007063 0.00157,0.0106093 -0.00157,0.0113615 -0.00214,0.007063 c -0.00383,0.0126115 -0.016201,0.0261016 -0.029386,0.0320473 l -0.012897,0.005817 8.066e-4,0.1456805 8.066e-4,0.14568061 0.064348,0.0267316 c 0.035392,0.0147019 0.06533,0.0276726 0.06653,0.0288234 0.0012,0.001144 -0.045106,0.0217487 -0.1029035,0.0457747 -0.057797,0.0240261 -0.1039792,0.0447071 -0.102627,0.045958 0.00135,0.001249 0.047658,0.0209862 0.1029034,0.0438555 0.055245,0.0228693 0.1015111,0.0425221 0.1028139,0.0436723 0.0013,0.001146 -0.044926,0.021749 -0.1027312,0.045776 -0.057805,0.0240263 -0.1040711,0.0447068 -0.1028137,0.0459561 0.00126,0.001249 0.046456,0.0206574 0.100441,0.0431287 0.053985,0.022472 0.1003718,0.042098 0.1030808,0.043614 0.00357,0.00199 -0.024007,0.014747 -0.1004375,0.046419 -0.05795,0.024014 -0.1053823,0.044369 -0.1054061,0.045232 -2.38e-5,8.551e-4 0.04731,0.021226 0.1051859,0.045253 0.057876,0.024026 0.1041227,0.044627 0.1027706,0.045779 -0.00135,0.00115 -0.047659,0.020815 -0.1029037,0.043692 -0.055245,0.022878 -0.1015125,0.042613 -0.1028173,0.043855 -0.0013,0.00125 0.01478,0.00938 0.035745,0.018075 l 0.038117,0.015817 -6.368e-4,0.1590025 c -6.006e-4,0.149642 -3.077e-4,0.1590029 0.00487,0.1590029 0.00946,0 0.026634,0.013201 0.033308,0.027466 l 0.00551,0.011785 c 0.00155,0.00434 0.00158,0.00984 0.00129,0.013817 -4.074e-4,0.00552 5.353e-4,0.011093 -9.158e-4,0.016411 -0.00535,0.019497 -0.011561,0.028719 -0.036637,0.036008 -0.014533,0.00219 -0.040645,-3.786e-4 -0.050823,-0.00763 -0.00531,-0.00378 -0.012716,-0.013213 -0.016472,-0.02097 l -0.00518,-0.016338 0.00138,-0.019738 z"
         id="path1492"
         sodipodi:nodetypes="ssscccsssssssscscssscsscscccsscccssscccsscccssscssssssscssssscssscsscssccs" />
    </g>
    <g
       id="g96"
       transform="matrix(0.26458333,0,0,0.26458333,-48.087915,122.7825)">
      <g
         id="g35"
         transform="translate(391.8,-89.600001)" />
      <g
         id="g37" />
      <g
         id="g39" />
      <g
         id="g41" />
      <g
         id="g43" />
      <g
         id="g45" />
      <g
         id="g47" />
      <g
         id="g49" />
      <g
         id="g51" />
      <g
         id="g53" />
      <g
         id="g55" />
      <g
         id="g57" />
      <g
         id="g59" />
      <g
         id="g61" />
      <g
         id="g63" />
      <g
         id="g65" />
    </g>
  </g>
</svg>
